<svg xmlns="http://www.w3.org/2000/svg" width="200" height="200" preserveAspectRatio="xMidYMid meet" version="1.0" viewBox="0 0 150 150"><metadata>Created by potrace 1.14, written by Peter Selinger 2001-2017</metadata><g fill="#000" stroke="none"><path d="M450 1230 c0 -13 -7 -20 -20 -20 -13 0 -20 -7 -20 -20 0 -13 -7 -20 -20 -20 -17 0 -20 -7 -20 -40 0 -33 -3 -40 -20 -40 -18 0 -20 -7 -20 -60 0 -53 2 -60 20 -60 17 0 20 -7 20 -40 0 -33 3 -40 20 -40 13 0 20 -7 20 -20 0 -13 7 -20 20 -20 13 0 20 -7 20 -20 0 -13 7 -20 20 -20 18 0 20 -7 20 -60 0 -53 2 -60 20 -60 14 0 20 -7 20 -21 0 -17 5 -20 23 -17 20 4 23 1 19 -19 -3 -18 0 -23 17 -23 20 0 21 -4 21 -120 0 -113 1 -120 20 -120 13 0 20 -7 20 -20 0 -13 7 -20 20 -20 13 0 20 -7 20 -20 0 -19 7 -20 100 -20 93 0 100 1 100 20 0 13 7 20 20 20 18 0 20 7 20 60 0 53 2 60 20 60 18 0 20 7 20 80 0 73 -2 80 -20 80 -17 0 -20 7 -20 40 0 33 3 40 20 40 18 0 20 7 20 60 0 53 2 60 20 60 13 0 20 7 20 20 0 13 7 20 20 20 20 0 21 5 18 83 -2 56 -7 82 -15 83 -24 3 -25 4 -13 19 7 8 18 15 24 14 7 0 6 -2 -1 -6 -10 -3 -10 -8 1 -19 21 -21 46 -17 46 6 0 14 7 20 21 20 15 0 20 5 17 23 -2 12 -9 22 -17 22 -8 0 -15 7 -16 16 -2 12 3 15 16 12 10 -3 17 -10 16 -16 -1 -6 8 -13 21 -15 21 -3 22 0 22 57 0 54 -2 61 -20 61 -13 0 -20 7 -20 20 0 18 -7 20 -80 20 -73 0 -80 -2 -80 -20 0 -13 -7 -20 -20 -20 -13 0 -20 -7 -20 -20 0 -13 -7 -20 -20 -20 -13 0 -20 -7 -20 -20 0 -13 -7 -20 -20 -20 -17 0 -20 -7 -20 -40 0 -33 -3 -40 -20 -40 -17 0 -20 -7 -20 -40 0 -33 -3 -40 -20 -40 -13 0 -20 7 -20 20 0 13 -7 20 -20 20 -13 0 -20 7 -20 20 0 17 -7 20 -40 20 -33 0 -40 3 -40 20 0 13 -7 20 -20 20 -18 0 -20 7 -20 60 0 53 -2 60 -20 60 -13 0 -20 7 -20 20 0 18 -7 20 -60 20 -53 0 -60 -2 -60 -20z m557 -40 c0 -9 -10 -17 -21 -18 -17 -1 -18 1 -6 8 11 7 11 10 2 10 -7 0 -11 4 -8 8 9 15 35 9 33 -8z m-560 -35 c0 -8 -4 -12 -9 -9 -4 3 -8 0 -8 -6 0 -6 -5 -8 -11 -5 -8 5 10 28 27 35 0 0 1 -7 1 -15z m240 -527 c-1 -20 -17 -25 -17 -5 0 9 -2 9 -8 0 -10 -16 -45 -10 -48 8 -1 11 8 15 36 15 31 0 38 -4 37 -18z" transform="translate(0.000000,150.000000) scale(0.100000,-0.100000)"/><path d="M626 632 c-3 -5 1 -9 9 -9 8 0 15 4 15 9 0 4 -4 8 -9 8 -6 0 -12 -4 -15 -8z" transform="translate(0.000000,150.000000) scale(0.100000,-0.100000)"/></g></svg>