<?xml version="1.0" standalone="no"?>
<!DOCTYPE svg PUBLIC "-//W3C//DTD SVG 20010904//EN"
 "http://www.w3.org/TR/2001/REC-SVG-20010904/DTD/svg10.dtd">
<svg version="1.0" xmlns="http://www.w3.org/2000/svg"
 width="260.000000pt" height="260.000000pt" viewBox="0 0 260.000000 260.000000"
 preserveAspectRatio="xMidYMid meet">
<metadata>
Created by potrace 1.14, written by Peter Selinger 2001-2017
</metadata>
<g transform="translate(0.000000,260.000000) scale(0.100000,-0.100000)"
fill="#000000" stroke="none">
<path d="M1250 2500 l0 -90 -50 0 -50 0 0 -40 0 -40 -40 0 -40 0 0 -90 0 -90
-40 0 -40 0 0 -130 0 -130 -55 0 -55 0 0 85 0 85 -35 0 c-35 0 -35 0 -35 45
l0 45 -50 0 -50 0 0 -45 0 -45 -50 0 -50 0 0 -85 0 -85 -35 0 -35 0 0 -180 0
-180 35 0 c34 0 35 -1 35 -40 l0 -40 50 0 50 0 0 -50 0 -50 50 0 50 0 0 -180
0 -180 -50 0 -50 0 0 135 0 135 -50 0 -50 0 0 45 c0 45 0 45 -35 45 l-35 0 0
-80 0 -80 -45 0 -45 0 0 -50 0 -50 -50 0 -50 0 0 -85 0 -85 -40 0 -40 0 0 -95
0 -95 -40 0 -40 0 0 -45 0 -45 -55 0 -55 0 0 -130 0 -130 455 0 455 0 0 215 0
215 -55 0 -55 0 0 55 0 55 -35 0 c-33 0 -35 2 -35 35 l0 35 90 0 90 0 0 -35 0
-35 80 0 80 0 0 -55 0 -55 -40 0 -40 0 0 -40 0 -40 40 0 40 0 0 -90 0 -90 -40
0 -40 0 0 -85 0 -85 40 0 40 0 0 -45 0 -45 130 0 130 0 0 45 0 45 50 0 50 0 0
-45 0 -45 50 0 50 0 0 260 0 260 -50 0 -50 0 0 90 0 90 50 0 50 0 0 100 0 100
35 0 c33 0 35 2 35 35 l0 35 55 0 55 0 0 -135 0 -135 -55 0 -55 0 0 -90 0 -90
55 0 55 0 0 -175 0 -175 -55 0 -55 0 0 -40 0 -40 430 0 430 0 0 85 c0 84 0 85
-25 85 -25 0 -25 1 -25 90 l0 90 -40 0 -40 0 0 40 0 40 -50 0 -50 0 0 90 0 90
-45 0 -45 0 0 100 0 100 -40 0 c-39 0 -40 1 -40 35 0 35 0 35 -45 35 l-45 0 0
95 0 95 -45 0 -45 0 0 -50 0 -50 -45 0 -45 0 0 220 0 220 45 0 45 0 0 50 0 50
45 0 45 0 0 130 0 130 -90 0 -90 0 0 -45 0 -45 -40 0 c-39 0 -40 -1 -40 -35
l0 -35 -90 0 -90 0 0 130 0 130 -50 0 -50 0 0 80 0 80 -50 0 -50 0 0 55 0 55
-35 0 c-33 0 -35 2 -35 35 0 35 0 35 -45 35 l-45 0 0 -90z m360 -625 l0 -85
-50 0 -50 0 0 -130 0 -130 -50 0 -50 0 0 -40 c0 -39 -1 -40 -35 -40 -34 0 -35
1 -35 40 l0 40 -45 0 -45 0 0 40 0 40 -50 0 -50 0 0 55 0 55 -40 0 c-39 0 -40
1 -40 35 0 34 -1 35 -40 35 l-40 0 0 50 0 50 40 0 40 0 0 -50 0 -50 80 0 80 0
0 -35 0 -35 55 0 55 0 0 -55 0 -55 35 0 35 0 0 90 0 90 50 0 50 0 0 85 0 85
50 0 50 0 0 -85z m260 -570 l0 -45 -40 0 -40 0 0 45 0 45 40 0 40 0 0 -45z"/>
</g>
</svg>
