<?xml version="1.0" standalone="no"?>
<!DOCTYPE svg PUBLIC "-//W3C//DTD SVG 20010904//EN"
 "http://www.w3.org/TR/2001/REC-SVG-20010904/DTD/svg10.dtd">
<svg version="1.0" xmlns="http://www.w3.org/2000/svg"
 width="150.000000pt" height="150.000000pt" viewBox="0 0 150.000000 150.000000"
 preserveAspectRatio="xMidYMid meet">
<metadata>
Created by potrace 1.14, written by Peter Selinger 2001-2017
</metadata>
<g transform="translate(0.000000,150.000000) scale(0.100000,-0.100000)"
fill="#000000" stroke="none">
<path d="M720 1280 c0 -13 -7 -20 -20 -20 -13 0 -20 -7 -20 -20 0 -13 -7 -20
-20 -20 -17 0 -20 -7 -20 -40 0 -33 -3 -40 -20 -40 -18 0 -20 -7 -20 -60 0
-53 -2 -60 -20 -60 -13 0 -20 7 -20 20 0 13 -7 20 -20 20 -17 0 -20 7 -20 40
0 33 -3 40 -20 40 -13 0 -20 -7 -20 -20 0 -13 -7 -20 -20 -20 -18 0 -20 -7
-20 -60 0 -53 -2 -60 -20 -60 -13 0 -20 -7 -20 -20 0 -13 7 -20 20 -20 18 0
20 -7 20 -60 0 -53 2 -60 20 -60 13 0 20 -7 20 -20 0 -13 7 -20 20 -20 13 0
20 -7 20 -20 0 -13 7 -20 20 -20 18 0 20 -7 20 -60 0 -53 2 -60 20 -60 13 0
20 -7 20 -20 0 -17 7 -20 40 -20 33 0 40 -3 40 -20 0 -13 -7 -20 -20 -20 -13
0 -20 -7 -20 -20 0 -13 7 -20 20 -20 17 0 20 -7 20 -40 0 -33 -3 -40 -20 -40
-13 0 -20 -7 -20 -20 0 -17 7 -20 40 -20 l40 0 0 -40 c0 -33 3 -40 20 -40 13
0 20 7 20 20 0 13 7 20 20 20 13 0 20 7 20 20 0 17 7 20 40 20 l40 0 0 80 c0
73 -2 80 -20 80 -17 0 -20 7 -20 40 0 33 3 40 20 40 18 0 20 7 20 60 l0 60 40
0 c33 0 40 3 40 20 0 13 7 20 20 20 13 0 20 -7 20 -20 0 -13 7 -20 20 -20 17
0 20 -7 20 -40 0 -33 3 -40 20 -40 17 0 20 -7 20 -40 0 -33 3 -40 20 -40 17 0
20 -7 20 -40 0 -33 3 -40 20 -40 13 0 20 -7 20 -20 0 -13 7 -20 20 -20 13 0
20 -7 20 -20 0 -19 -7 -20 -120 -20 -113 0 -120 -1 -120 -20 0 -13 -7 -20 -20
-20 -13 0 -20 -7 -20 -20 0 -19 7 -20 190 -20 l190 0 0 40 c0 22 -4 40 -10 40
-5 0 -10 9 -10 20 0 13 -7 20 -20 20 -17 0 -20 7 -20 40 0 33 -3 40 -20 40
-17 0 -20 7 -20 40 0 33 -3 40 -20 40 -17 0 -20 7 -20 40 0 33 -3 40 -20 40
-13 0 -20 7 -20 20 0 13 -7 20 -20 20 -17 0 -20 7 -20 40 0 33 -3 40 -20 40
-13 0 -20 -7 -20 -20 0 -13 -7 -20 -20 -20 -19 0 -20 7 -20 100 0 93 1 100 20
100 17 0 20 7 20 40 0 33 3 40 20 40 17 0 20 7 20 40 0 33 -3 40 -20 40 -13 0
-20 -7 -20 -20 0 -13 -7 -20 -20 -20 -13 0 -20 -7 -20 -20 0 -17 -7 -20 -40
-20 -33 0 -40 -3 -40 -20 0 -13 7 -20 20 -20 13 0 20 -7 20 -20 0 -17 -7 -20
-40 -20 -33 0 -40 -3 -40 -20 0 -13 -7 -20 -20 -20 -18 0 -20 -7 -20 -60 l0
-60 -40 0 c-33 0 -40 3 -40 20 0 13 -7 20 -20 20 -13 0 -20 7 -20 20 0 13 -7
20 -20 20 -13 0 -20 7 -20 20 0 13 -7 20 -20 20 -13 0 -20 7 -20 20 0 13 -7
20 -20 20 -13 0 -20 7 -20 20 0 17 7 20 40 20 l40 0 0 40 c0 33 3 40 20 40 17
0 20 7 20 40 0 33 3 40 20 40 13 0 20 -7 20 -20 0 -13 7 -20 20 -20 17 0 20
-7 20 -39 0 -35 3 -39 31 -45 17 -3 35 -6 40 -6 5 0 9 29 9 65 0 58 -2 65 -20
65 -13 0 -20 7 -20 20 0 13 -7 20 -20 20 -17 0 -20 7 -20 40 l0 40 -40 0 c-33
0 -40 -3 -40 -20z"/>
<path d="M400 740 c0 -33 -3 -40 -20 -40 -13 0 -20 -7 -20 -20 0 -13 -7 -20
-20 -20 -17 0 -20 -7 -20 -40 0 -33 -3 -40 -20 -40 -17 0 -20 -7 -20 -40 0
-33 -3 -40 -20 -40 -13 0 -20 -7 -20 -20 0 -13 -7 -20 -20 -20 -18 0 -20 -7
-20 -60 l0 -60 200 0 200 0 0 40 0 40 -140 0 c-133 0 -140 1 -140 20 0 13 7
20 20 20 17 0 20 7 20 40 0 33 3 40 20 40 17 0 20 7 20 40 0 33 3 40 20 40 17
0 20 7 20 40 0 33 3 40 20 40 13 0 20 7 20 20 0 13 -7 20 -20 20 -13 0 -20 7
-20 20 0 13 -7 20 -20 20 -17 0 -20 -7 -20 -40z"/>
</g>
</svg>
